<svg width="64" height="22" viewBox="0 0 64 22" fill="none" xmlns="http://www.w3.org/2000/svg">
<path d="M6.075 15.25C4.825 15.25 3.81667 15.0333 3.05 14.6C2.28333 14.15 1.725 13.5417 1.375 12.775C1.04167 12.0083 0.875 11.125 0.875 10.125H4.175C4.175 10.6917 4.29167 11.1917 4.525 11.625C4.775 12.0417 5.25 12.25 5.95 12.25C6.55 12.25 6.99167 12.0667 7.275 11.7C7.55833 11.3167 7.7 10.5667 7.7 9.45V3.575H4.75V0.924999H11.2V8.85C11.2 9.81667 11.1333 10.7 11 11.5C10.8833 12.2833 10.65 12.9583 10.3 13.525C9.95 14.075 9.43333 14.5 8.75 14.8C8.08333 15.1 7.19167 15.25 6.075 15.25ZM18.6703 15.25C17.4536 15.25 16.437 15.025 15.6203 14.575C14.8036 14.1083 14.1953 13.475 13.7953 12.675C13.3953 11.875 13.1953 10.9667 13.1953 9.95C13.1786 8.91667 13.3703 8.00833 13.7703 7.225C14.1703 6.425 14.7786 5.79167 15.5953 5.325C16.4286 4.85833 17.4536 4.625 18.6703 4.625C20.4536 4.625 21.8036 5.11667 22.7203 6.1C23.6536 7.06667 24.1203 8.35 24.1203 9.95C24.1203 10.95 23.9203 11.85 23.5203 12.65C23.137 13.45 22.5453 14.0833 21.7453 14.55C20.9453 15.0167 19.9203 15.25 18.6703 15.25ZM18.6703 12.35C19.287 12.35 19.7453 12.225 20.0453 11.975C20.3453 11.725 20.537 11.4083 20.6203 11.025C20.7203 10.625 20.7703 10.225 20.7703 9.825C20.7703 9.40833 20.7203 9.00833 20.6203 8.625C20.537 8.24167 20.3453 7.925 20.0453 7.675C19.7453 7.40833 19.287 7.275 18.6703 7.275C18.0536 7.275 17.587 7.40833 17.2703 7.675C16.9703 7.925 16.7703 8.24167 16.6703 8.625C16.587 9.00833 16.5453 9.40833 16.5453 9.825C16.5453 10.225 16.587 10.625 16.6703 11.025C16.7703 11.4083 16.9703 11.725 17.2703 11.975C17.587 12.225 18.0536 12.35 18.6703 12.35ZM29.9529 15C28.9529 15 28.1613 14.7667 27.5779 14.3C26.9946 13.8333 26.7029 12.9833 26.7029 11.75V7.025H25.2529V4.65C25.6529 4.65 25.9946 4.59167 26.2779 4.475C26.5779 4.35833 26.8029 4.11667 26.9529 3.75C27.1196 3.36667 27.2029 2.79167 27.2029 2.025H29.9529V4.65H32.2779V7.025H29.9529V12.325H32.3529V15H29.9529ZM38.3025 15C37.3025 15 36.5109 14.7667 35.9275 14.3C35.3442 13.8333 35.0525 12.9833 35.0525 11.75V7.025H33.6025V4.65C34.0025 4.65 34.3442 4.59167 34.6275 4.475C34.9275 4.35833 35.1525 4.11667 35.3025 3.75C35.4692 3.36667 35.5525 2.79167 35.5525 2.025H38.3025V4.65H40.6275V7.025H38.3025V12.325H40.7025V15H38.3025ZM47.4521 15.25C46.2021 15.25 45.1938 15 44.4271 14.5C43.6605 14 43.0938 13.3583 42.7271 12.575C42.3771 11.775 42.1855 10.9417 42.1521 10.075C42.1188 8.94167 42.3188 7.96667 42.7521 7.15C43.1855 6.31667 43.7938 5.68333 44.5771 5.25C45.3771 4.8 46.2938 4.575 47.3271 4.575C48.3105 4.575 49.1855 4.78333 49.9521 5.2C50.7355 5.6 51.3438 6.175 51.7771 6.925C52.2271 7.675 52.4521 8.575 52.4521 9.625V10.275H45.4521C45.4521 11.0083 45.6271 11.5417 45.9771 11.875C46.3438 12.2083 46.8105 12.375 47.3771 12.375C47.8605 12.375 48.2438 12.2667 48.5271 12.05C48.8271 11.8167 49.0021 11.525 49.0521 11.175H52.4271C52.3771 11.9083 52.1605 12.5917 51.7771 13.225C51.3938 13.8417 50.8438 14.3333 50.1271 14.7C49.4105 15.0667 48.5188 15.25 47.4521 15.25ZM45.5021 8.875H48.9521C48.9521 8.875 48.9438 8.8 48.9271 8.65C48.9271 8.5 48.8771 8.325 48.7771 8.125C48.6771 7.925 48.5105 7.75 48.2771 7.6C48.0438 7.45 47.7021 7.375 47.2521 7.375C46.8021 7.375 46.4521 7.45 46.2021 7.6C45.9521 7.75 45.7771 7.925 45.6771 8.125C45.5938 8.325 45.5438 8.5 45.5271 8.65C45.5105 8.8 45.5021 8.875 45.5021 8.875ZM54.293 15V4.65H57.593L57.818 7.6C57.918 7.16667 58.1096 6.725 58.393 6.275C58.6763 5.80833 59.0846 5.425 59.618 5.125C60.1513 4.80833 60.8513 4.65 61.718 4.65H61.943V8.525H61.693C60.8596 8.525 60.1513 8.575 59.568 8.675C58.9846 8.775 58.543 8.99167 58.243 9.325C57.943 9.64167 57.793 10.1583 57.793 10.875V15H54.293Z" fill="#212138"/>
<path d="M1.5 19.5L58 17V18.5L1.5 21V19.5Z" fill="#212138" stroke="#212138" stroke-width="0.5"/>
</svg>
