<svg width="64" height="30" viewBox="0 0 64 30" fill="none" xmlns="http://www.w3.org/2000/svg">
<path d="M6.075 23.25C4.825 23.25 3.81667 23.0333 3.05 22.6C2.28333 22.15 1.725 21.5417 1.375 20.775C1.04167 20.0083 0.875 19.125 0.875 18.125H4.175C4.175 18.6917 4.29167 19.1917 4.525 19.625C4.775 20.0417 5.25 20.25 5.95 20.25C6.55 20.25 6.99167 20.0667 7.275 19.7C7.55833 19.3167 7.7 18.5667 7.7 17.45V11.575H4.75V8.925H11.2V16.85C11.2 17.8167 11.1333 18.7 11 19.5C10.8833 20.2833 10.65 20.9583 10.3 21.525C9.95 22.075 9.43333 22.5 8.75 22.8C8.08333 23.1 7.19167 23.25 6.075 23.25ZM18.6703 23.25C17.4536 23.25 16.437 23.025 15.6203 22.575C14.8036 22.1083 14.1953 21.475 13.7953 20.675C13.3953 19.875 13.1953 18.9667 13.1953 17.95C13.1786 16.9167 13.3703 16.0083 13.7703 15.225C14.1703 14.425 14.7786 13.7917 15.5953 13.325C16.4286 12.8583 17.4536 12.625 18.6703 12.625C20.4536 12.625 21.8036 13.1167 22.7203 14.1C23.6536 15.0667 24.1203 16.35 24.1203 17.95C24.1203 18.95 23.9203 19.85 23.5203 20.65C23.137 21.45 22.5453 22.0833 21.7453 22.55C20.9453 23.0167 19.9203 23.25 18.6703 23.25ZM18.6703 20.35C19.287 20.35 19.7453 20.225 20.0453 19.975C20.3453 19.725 20.537 19.4083 20.6203 19.025C20.7203 18.625 20.7703 18.225 20.7703 17.825C20.7703 17.4083 20.7203 17.0083 20.6203 16.625C20.537 16.2417 20.3453 15.925 20.0453 15.675C19.7453 15.4083 19.287 15.275 18.6703 15.275C18.0536 15.275 17.587 15.4083 17.2703 15.675C16.9703 15.925 16.7703 16.2417 16.6703 16.625C16.587 17.0083 16.5453 17.4083 16.5453 17.825C16.5453 18.225 16.587 18.625 16.6703 19.025C16.7703 19.4083 16.9703 19.725 17.2703 19.975C17.587 20.225 18.0536 20.35 18.6703 20.35ZM29.9529 23C28.9529 23 28.1613 22.7667 27.5779 22.3C26.9946 21.8333 26.7029 20.9833 26.7029 19.75V15.025H25.2529V12.65C25.6529 12.65 25.9946 12.5917 26.2779 12.475C26.5779 12.3583 26.8029 12.1167 26.9529 11.75C27.1196 11.3667 27.2029 10.7917 27.2029 10.025H29.9529V12.65H32.2779V15.025H29.9529V20.325H32.3529V23H29.9529ZM38.3025 23C37.3025 23 36.5109 22.7667 35.9275 22.3C35.3442 21.8333 35.0525 20.9833 35.0525 19.75V15.025H33.6025V12.65C34.0025 12.65 34.3442 12.5917 34.6275 12.475C34.9275 12.3583 35.1525 12.1167 35.3025 11.75C35.4692 11.3667 35.5525 10.7917 35.5525 10.025H38.3025V12.65H40.6275V15.025H38.3025V20.325H40.7025V23H38.3025ZM47.4521 23.25C46.2021 23.25 45.1938 23 44.4271 22.5C43.6605 22 43.0938 21.3583 42.7271 20.575C42.3771 19.775 42.1855 18.9417 42.1521 18.075C42.1188 16.9417 42.3188 15.9667 42.7521 15.15C43.1855 14.3167 43.7938 13.6833 44.5771 13.25C45.3771 12.8 46.2938 12.575 47.3271 12.575C48.3105 12.575 49.1855 12.7833 49.9521 13.2C50.7355 13.6 51.3438 14.175 51.7771 14.925C52.2271 15.675 52.4521 16.575 52.4521 17.625V18.275H45.4521C45.4521 19.0083 45.6271 19.5417 45.9771 19.875C46.3438 20.2083 46.8105 20.375 47.3771 20.375C47.8605 20.375 48.2438 20.2667 48.5271 20.05C48.8271 19.8167 49.0021 19.525 49.0521 19.175H52.4271C52.3771 19.9083 52.1605 20.5917 51.7771 21.225C51.3938 21.8417 50.8438 22.3333 50.1271 22.7C49.4105 23.0667 48.5188 23.25 47.4521 23.25ZM45.5021 16.875H48.9521C48.9521 16.875 48.9438 16.8 48.9271 16.65C48.9271 16.5 48.8771 16.325 48.7771 16.125C48.6771 15.925 48.5105 15.75 48.2771 15.6C48.0438 15.45 47.7021 15.375 47.2521 15.375C46.8021 15.375 46.4521 15.45 46.2021 15.6C45.9521 15.75 45.7771 15.925 45.6771 16.125C45.5938 16.325 45.5438 16.5 45.5271 16.65C45.5105 16.8 45.5021 16.875 45.5021 16.875ZM54.293 23V12.65H57.593L57.818 15.6C57.918 15.1667 58.1096 14.725 58.393 14.275C58.6763 13.8083 59.0846 13.425 59.618 13.125C60.1513 12.8083 60.8513 12.65 61.718 12.65H61.943V16.525H61.693C60.8596 16.525 60.1513 16.575 59.568 16.675C58.9846 16.775 58.543 16.9917 58.243 17.325C57.943 17.6417 57.793 18.1583 57.793 18.875V23H54.293Z" fill="#585858"/>
<path d="M1.5 27.5L58 25V26.5L1.5 29V27.5Z" fill="#585858" stroke="#585858" stroke-width="0.5"/>
</svg>
