<svg width="81" height="29" viewBox="0 0 81 29" fill="none" xmlns="http://www.w3.org/2000/svg">
<rect width="81" height="29" rx="14.5" fill="#68D297"/>
<path d="M24.2942 18.084C23.7102 18.084 23.1822 17.984 22.7102 17.784C22.2462 17.584 21.8782 17.296 21.6062 16.92C21.3342 16.544 21.1942 16.1 21.1862 15.588H22.9862C23.0102 15.932 23.1302 16.204 23.3462 16.404C23.5702 16.604 23.8742 16.704 24.2582 16.704C24.6502 16.704 24.9582 16.612 25.1822 16.428C25.4062 16.236 25.5182 15.988 25.5182 15.684C25.5182 15.436 25.4422 15.232 25.2902 15.072C25.1382 14.912 24.9462 14.788 24.7142 14.7C24.4902 14.604 24.1782 14.5 23.7782 14.388C23.2342 14.228 22.7902 14.072 22.4462 13.92C22.1102 13.76 21.8182 13.524 21.5702 13.212C21.3302 12.892 21.2102 12.468 21.2102 11.94C21.2102 11.444 21.3342 11.012 21.5822 10.644C21.8302 10.276 22.1782 9.996 22.6262 9.804C23.0742 9.604 23.5862 9.504 24.1622 9.504C25.0262 9.504 25.7262 9.716 26.2622 10.14C26.8062 10.556 27.1062 11.14 27.1622 11.892H25.3142C25.2982 11.604 25.1742 11.368 24.9422 11.184C24.7182 10.992 24.4182 10.896 24.0422 10.896C23.7142 10.896 23.4502 10.98 23.2502 11.148C23.0582 11.316 22.9622 11.56 22.9622 11.88C22.9622 12.104 23.0342 12.292 23.1782 12.444C23.3302 12.588 23.5142 12.708 23.7302 12.804C23.9542 12.892 24.2662 12.996 24.6662 13.116C25.2102 13.276 25.6542 13.436 25.9982 13.596C26.3422 13.756 26.6382 13.996 26.8862 14.316C27.1342 14.636 27.2582 15.056 27.2582 15.576C27.2582 16.024 27.1422 16.44 26.9102 16.824C26.6782 17.208 26.3382 17.516 25.8902 17.748C25.4422 17.972 24.9102 18.084 24.2942 18.084ZM29.5667 10.56C29.2707 10.56 29.0227 10.468 28.8227 10.284C28.6307 10.092 28.5347 9.856 28.5347 9.576C28.5347 9.296 28.6307 9.064 28.8227 8.88C29.0227 8.688 29.2707 8.592 29.5667 8.592C29.8627 8.592 30.1067 8.688 30.2987 8.88C30.4987 9.064 30.5987 9.296 30.5987 9.576C30.5987 9.856 30.4987 10.092 30.2987 10.284C30.1067 10.468 29.8627 10.56 29.5667 10.56ZM30.3947 11.352V18H28.7147V11.352H30.3947ZM34.6586 11.244C35.1546 11.244 35.5906 11.344 35.9666 11.544C36.3426 11.736 36.6386 11.988 36.8546 12.3V11.352H38.5466V18.048C38.5466 18.664 38.4226 19.212 38.1746 19.692C37.9266 20.18 37.5546 20.564 37.0586 20.844C36.5626 21.132 35.9626 21.276 35.2586 21.276C34.3146 21.276 33.5386 21.056 32.9306 20.616C32.3306 20.176 31.9906 19.576 31.9106 18.816H33.5786C33.6666 19.12 33.8546 19.36 34.1426 19.536C34.4386 19.72 34.7946 19.812 35.2106 19.812C35.6986 19.812 36.0946 19.664 36.3986 19.368C36.7026 19.08 36.8546 18.64 36.8546 18.048V17.016C36.6386 17.328 36.3386 17.588 35.9546 17.796C35.5786 18.004 35.1466 18.108 34.6586 18.108C34.0986 18.108 33.5866 17.964 33.1226 17.676C32.6586 17.388 32.2906 16.984 32.0186 16.464C31.7546 15.936 31.6226 15.332 31.6226 14.652C31.6226 13.98 31.7546 13.384 32.0186 12.864C32.2906 12.344 32.6546 11.944 33.1106 11.664C33.5746 11.384 34.0906 11.244 34.6586 11.244ZM36.8546 14.676C36.8546 14.268 36.7746 13.92 36.6146 13.632C36.4546 13.336 36.2386 13.112 35.9666 12.96C35.6946 12.8 35.4026 12.72 35.0906 12.72C34.7786 12.72 34.4906 12.796 34.2266 12.948C33.9626 13.1 33.7466 13.324 33.5786 13.62C33.4186 13.908 33.3386 14.252 33.3386 14.652C33.3386 15.052 33.4186 15.404 33.5786 15.708C33.7466 16.004 33.9626 16.232 34.2266 16.392C34.4986 16.552 34.7866 16.632 35.0906 16.632C35.4026 16.632 35.6946 16.556 35.9666 16.404C36.2386 16.244 36.4546 16.02 36.6146 15.732C36.7746 15.436 36.8546 15.084 36.8546 14.676ZM43.8714 11.256C44.6634 11.256 45.3034 11.508 45.7914 12.012C46.2794 12.508 46.5234 13.204 46.5234 14.1V18H44.8434V14.328C44.8434 13.8 44.7114 13.396 44.4474 13.116C44.1834 12.828 43.8234 12.684 43.3674 12.684C42.9034 12.684 42.5354 12.828 42.2634 13.116C41.9994 13.396 41.8674 13.8 41.8674 14.328V18H40.1874V11.352H41.8674V12.18C42.0914 11.892 42.3754 11.668 42.7194 11.508C43.0714 11.34 43.4554 11.256 43.8714 11.256ZM51.8323 10.56C51.5363 10.56 51.2883 10.468 51.0883 10.284C50.8963 10.092 50.8003 9.856 50.8003 9.576C50.8003 9.296 50.8963 9.064 51.0883 8.88C51.2883 8.688 51.5363 8.592 51.8323 8.592C52.1283 8.592 52.3723 8.688 52.5643 8.88C52.7643 9.064 52.8643 9.296 52.8643 9.576C52.8643 9.856 52.7643 10.092 52.5643 10.284C52.3723 10.468 52.1283 10.56 51.8323 10.56ZM52.6603 11.352V18H50.9803V11.352H52.6603ZM58.0042 11.256C58.7962 11.256 59.4362 11.508 59.9242 12.012C60.4122 12.508 60.6562 13.204 60.6562 14.1V18H58.9762V14.328C58.9762 13.8 58.8442 13.396 58.5802 13.116C58.3162 12.828 57.9562 12.684 57.5002 12.684C57.0362 12.684 56.6682 12.828 56.3962 13.116C56.1322 13.396 56.0002 13.8 56.0002 14.328V18H54.3202V11.352H56.0002V12.18C56.2242 11.892 56.5082 11.668 56.8522 11.508C57.2042 11.34 57.5882 11.256 58.0042 11.256Z" fill="white"/>
</svg>
